<?xml version="1.0" encoding="UTF-8"?>
<svg xmlns="http://www.w3.org/2000/svg" xmlns:xlink="http://www.w3.org/1999/xlink" width="864pt" height="864pt" viewBox="0 0 864 864" version="1.1">
<g id="surface1">
<path style=" stroke:none;fill-rule:nonzero;fill:rgb(23.098755%,53.29895%,25.099182%);fill-opacity:1;" d="M 864 431.871094 C 864 670.554688 670.6875 864 432 864 C 193.445313 864 0 670.554688 0 431.871094 C 0 193.3125 193.445313 0 432 0 C 670.6875 0 864 193.3125 864 431.871094 "/>
<path style=" stroke:none;fill-rule:nonzero;fill:rgb(100%,100%,100%);fill-opacity:1;" d="M 206.949219 348.589844 C 191.082031 348.589844 178.230469 361.3125 178.230469 377.179688 L 178.230469 515.933594 C 178.230469 531.675781 191.082031 544.652344 206.949219 544.652344 C 222.820313 544.652344 235.605469 531.675781 235.605469 515.933594 L 235.605469 377.179688 C 235.605469 361.3125 222.820313 348.589844 206.949219 348.589844 "/>
<path style=" stroke:none;fill-rule:nonzero;fill:rgb(100%,100%,100%);fill-opacity:1;" d="M 657.113281 348.589844 C 641.3125 348.589844 628.460938 361.3125 628.460938 377.179688 L 628.460938 515.933594 C 628.460938 531.675781 641.3125 544.652344 657.113281 544.652344 C 672.984375 544.652344 685.902344 531.675781 685.902344 515.933594 L 685.902344 377.179688 C 685.902344 361.3125 672.984375 348.589844 657.113281 348.589844 "/>
<path style=" stroke:none;fill-rule:nonzero;fill:rgb(100%,100%,100%);fill-opacity:1;" d="M 261.378906 348.589844 C 261.378906 348.984375 261.378906 349.246094 261.378906 349.636719 L 261.378906 605.636719 C 261.378906 629.378906 280.65625 648.65625 304.394531 648.65625 L 350.429688 648.65625 L 350.429688 721.574219 C 350.429688 737.3125 363.28125 750.292969 379.148438 750.292969 C 395.015625 750.292969 407.867188 737.3125 407.867188 721.574219 L 407.867188 648.65625 L 456.851563 648.65625 L 456.851563 721.574219 C 456.851563 737.3125 469.703125 750.292969 485.511719 750.292969 C 501.378906 750.292969 514.230469 737.3125 514.230469 721.574219 L 514.230469 648.65625 L 560.265625 648.65625 C 584.070313 648.65625 603.347656 629.378906 603.347656 605.636719 L 603.347656 349.636719 C 603.347656 349.246094 603.277344 348.984375 603.214844 348.589844 L 261.378906 348.589844 "/>
<path style=" stroke:none;fill-rule:nonzero;fill:rgb(100%,100%,100%);fill-opacity:1;" d="M 516.980469 255.609375 C 508.0625 255.609375 500.921875 248.265625 500.921875 239.476563 C 500.921875 230.558594 508.0625 223.210938 516.980469 223.210938 C 525.964844 223.210938 533.117188 230.558594 533.117188 239.476563 C 533.117188 248.265625 525.964844 255.609375 516.980469 255.609375 Z M 344.855469 255.609375 C 336 255.609375 328.652344 248.265625 328.652344 239.476563 C 328.652344 230.558594 336 223.210938 344.855469 223.210938 C 353.773438 223.210938 361.050781 230.558594 361.050781 239.476563 C 361.050781 248.265625 353.773438 255.609375 344.855469 255.609375 Z M 515.808594 174.296875 L 546.492188 117.117188 L 540.195313 113.707031 L 509.441406 170.882813 C 486.296875 159.085938 460.066406 152.390625 432.261719 152.390625 C 405.898438 152.390625 380.980469 158.429688 358.753906 169.179688 L 328.921875 113.707031 L 322.554688 117.117188 L 352.261719 172.328125 C 299.214844 200.917969 263.015625 256.65625 262.558594 321.050781 L 602.097656 321.050781 C 601.710938 258.101563 566.953125 203.28125 515.808594 174.296875 "/>
</g>
</svg>
