<?xml version="1.0" encoding="UTF-8"?>
<!DOCTYPE svg PUBLIC "-//W3C//DTD SVG 1.1//EN" "http://www.w3.org/Graphics/SVG/1.1/DTD/svg11.dtd">
<svg xmlns="http://www.w3.org/2000/svg" version="1.1" width="1251px" height="1353px" style="shape-rendering:geometricPrecision; text-rendering:geometricPrecision; image-rendering:optimizeQuality; fill-rule:evenodd; clip-rule:evenodd" xmlns:xlink="http://www.w3.org/1999/xlink">
<g><path style="opacity:0.999" fill="#3cdb83" d="M 1039.5,429.5 C 985.002,461.248 930.669,493.248 876.5,525.5C 870.036,518.878 863.036,512.711 855.5,507C 784.833,467.333 714.167,427.667 643.5,388C 628.845,382.003 614.179,382.003 599.5,388C 529.24,428.601 459.24,469.601 389.5,511C 381.851,516.441 375.684,523.274 371,531.5C 370.329,532.252 369.496,532.586 368.5,532.5C 313.475,502.325 258.808,471.658 204.5,440.5C 208.292,432.202 213.125,424.535 219,417.5C 224.542,412.289 230.375,407.456 236.5,403C 348.094,337.732 459.427,272.065 570.5,206C 602.337,189.715 634.337,189.382 666.5,205C 779.167,268.667 891.833,332.333 1004.5,396C 1018.41,404.931 1030.08,416.098 1039.5,429.5 Z"/></g>
<g><path style="opacity:1" fill="#37bf6e" d="M 876.5,525.5 C 876.5,525.833 876.5,526.167 876.5,526.5C 848.025,542.235 820.359,559.235 793.5,577.5C 787.156,568.316 778.822,561.483 768.5,557C 727.167,533.667 685.833,510.333 644.5,487C 631.634,479.827 618.301,478.827 604.5,484C 558.075,511.385 511.741,539.051 465.5,567C 460.137,571.186 456.137,576.353 453.5,582.5C 426.651,565.237 398.984,549.237 370.5,534.5C 369.833,533.833 369.167,533.167 368.5,532.5C 369.496,532.586 370.329,532.252 371,531.5C 375.684,523.274 381.851,516.441 389.5,511C 459.24,469.601 529.24,428.601 599.5,388C 614.179,382.003 628.845,382.003 643.5,388C 714.167,427.667 784.833,467.333 855.5,507C 863.036,512.711 870.036,518.878 876.5,525.5 Z"/></g>
<g><path style="opacity:0.999" fill="#4184f3" d="M 1039.5,429.5 C 1049.68,444.55 1055.18,461.217 1056,479.5C 1056.67,608.5 1056.67,737.5 1056,866.5C 1054.03,903.295 1037.53,931.462 1006.5,951C 896.669,1015.41 787.002,1080.08 677.5,1145C 662.008,1153.87 645.342,1158.37 627.5,1158.5C 627.5,1095.17 627.5,1031.83 627.5,968.5C 627.5,968.167 627.5,967.833 627.5,967.5C 638.606,967.621 648.94,964.788 658.5,959C 719.335,922.748 780.335,886.748 841.5,851C 851.016,845.744 860.016,839.744 868.5,833C 877.585,823.663 883.085,812.496 885,799.5C 885.667,715.5 885.667,631.5 885,547.5C 883.025,540.059 880.192,533.059 876.5,526.5C 876.5,526.167 876.5,525.833 876.5,525.5C 930.669,493.248 985.002,461.248 1039.5,429.5 Z"/></g>
<g><path style="opacity:1" fill="#072f41" d="M 204.5,440.5 C 258.808,471.658 313.475,502.325 368.5,532.5C 369.167,533.167 369.833,533.833 370.5,534.5C 368.59,535.975 367.424,537.975 367,540.5C 365.871,545.809 364.871,551.143 364,556.5C 363.333,640.833 363.333,725.167 364,809.5C 365.627,823.447 372.46,833.947 384.5,841C 453.662,879.747 522.662,918.747 591.5,958C 602.606,964.609 614.606,968.109 627.5,968.5C 627.5,1031.83 627.5,1095.17 627.5,1158.5C 609.732,1158.72 593.066,1154.56 577.5,1146C 459.5,1079.33 341.5,1012.67 223.5,946C 205.844,933.871 196.011,917.038 194,895.5C 193.333,757.167 193.333,618.833 194,480.5C 194.414,466.224 197.914,452.891 204.5,440.5 Z"/></g>
<g><path style="opacity:1" fill="#d5effe" d="M 793.5,577.5 C 797.188,583.235 799.188,589.569 799.5,596.5C 799.808,651.85 799.475,707.183 798.5,762.5C 795.425,772.128 789.758,779.962 781.5,786C 734.426,814.066 687.093,841.732 639.5,869C 635.246,870.314 630.913,871.147 626.5,871.5C 617.423,871.53 609.09,869.03 601.5,864C 555.5,838 509.5,812 463.5,786C 457.064,782.229 452.897,776.729 451,769.5C 450.333,710.167 450.333,650.833 451,591.5C 451.739,588.454 452.572,585.454 453.5,582.5C 456.137,576.353 460.137,571.186 465.5,567C 511.741,539.051 558.075,511.385 604.5,484C 618.301,478.827 631.634,479.827 644.5,487C 685.833,510.333 727.167,533.667 768.5,557C 778.822,561.483 787.156,568.316 793.5,577.5 Z"/></g>
<g><path style="opacity:1" fill="#3870b2" d="M 876.5,526.5 C 880.192,533.059 883.025,540.059 885,547.5C 885.667,631.5 885.667,715.5 885,799.5C 883.085,812.496 877.585,823.663 868.5,833C 860.016,839.744 851.016,845.744 841.5,851C 780.335,886.748 719.335,922.748 658.5,959C 648.94,964.788 638.606,967.621 627.5,967.5C 626.849,935.504 626.516,903.504 626.5,871.5C 630.913,871.147 635.246,870.314 639.5,869C 687.093,841.732 734.426,814.066 781.5,786C 789.758,779.962 795.425,772.128 798.5,762.5C 799.302,761.048 799.802,759.382 800,757.5C 800.832,703.665 800.665,649.998 799.5,596.5C 799.188,589.569 797.188,583.235 793.5,577.5C 820.359,559.235 848.025,542.235 876.5,526.5 Z"/></g>
<g><path style="opacity:1" fill="#041619" d="M 370.5,534.5 C 398.984,549.237 426.651,565.237 453.5,582.5C 452.572,585.454 451.739,588.454 451,591.5C 450.333,650.833 450.333,710.167 451,769.5C 452.897,776.729 457.064,782.229 463.5,786C 509.5,812 555.5,838 601.5,864C 609.09,869.03 617.423,871.53 626.5,871.5C 626.516,903.504 626.849,935.504 627.5,967.5C 627.5,967.833 627.5,968.167 627.5,968.5C 614.606,968.109 602.606,964.609 591.5,958C 522.662,918.747 453.662,879.747 384.5,841C 372.46,833.947 365.627,823.447 364,809.5C 363.333,725.167 363.333,640.833 364,556.5C 364.871,551.143 365.871,545.809 367,540.5C 367.424,537.975 368.59,535.975 370.5,534.5 Z"/></g>
<g><path style="opacity:0.976" fill="#6293cb" d="M 799.5,596.5 C 800.665,649.998 800.832,703.665 800,757.5C 799.802,759.382 799.302,761.048 798.5,762.5C 799.475,707.183 799.808,651.85 799.5,596.5 Z"/></g>
</svg>
