<?xml version="1.0" encoding="UTF-8"?>
<!DOCTYPE svg PUBLIC "-//W3C//DTD SVG 1.1//EN" "http://www.w3.org/Graphics/SVG/1.1/DTD/svg11.dtd">
<svg xmlns="http://www.w3.org/2000/svg" version="1.1" width="200px" height="200px" style="shape-rendering:geometricPrecision; text-rendering:geometricPrecision; image-rendering:optimizeQuality; fill-rule:evenodd; clip-rule:evenodd" xmlns:xlink="http://www.w3.org/1999/xlink">
<g><path style="opacity:0.998" fill="#050505" d="M 58.5,25.5 C 62.5,31.5 67.5,36.5 73.5,40.5C 76.1667,45.1667 79.8333,48.8333 84.5,51.5C 89.5569,56.5618 94.8902,61.2285 100.5,65.5C 109.746,57.7588 118.579,49.4255 127,40.5C 127.464,39.9056 127.631,39.2389 127.5,38.5C 132.833,35.1667 137.167,30.8333 140.5,25.5C 142.962,22.5361 145.629,19.7028 148.5,17C 149.5,16.3333 150.5,16.3333 151.5,17C 162.209,27.3748 172.543,38.0414 182.5,49C 166.512,66.321 149.846,82.9877 132.5,99C 149,115.5 165.5,132 182,148.5C 182.667,149.5 182.667,150.5 182,151.5C 171.113,161.054 160.946,171.221 151.5,182C 150.833,182.667 150.167,182.667 149.5,182C 146.631,178.962 143.631,176.129 140.5,173.5C 127.755,159.252 114.422,145.419 100.5,132C 99.5632,131.308 98.8966,131.475 98.5,132.5C 82.1877,149.479 65.521,166.146 48.5,182.5C 37.3474,171.848 26.3474,161.014 15.5,150C 32.3473,133.319 49.014,116.486 65.5,99.5C 49.1455,82.8125 32.8121,66.1459 16.5,49.5C 17.1667,48.5 17.8333,47.5 18.5,46.5C 27.9099,36.5886 37.5766,26.7552 47.5,17C 48.1667,16.3333 48.8333,16.3333 49.5,17C 52.3694,20.0379 55.3694,22.8712 58.5,25.5 Z"/></g>
<g><path style="opacity:0.718" fill="#6f6f6f" d="M 58.5,25.5 C 63.8333,30.1667 68.8333,35.1667 73.5,40.5C 67.5,36.5 62.5,31.5 58.5,25.5 Z"/></g>
<g><path style="opacity:0.914" fill="#414141" d="M 140.5,25.5 C 137.167,30.8333 132.833,35.1667 127.5,38.5C 131.5,33.8333 135.833,29.5 140.5,25.5 Z"/></g>
<g><path style="opacity:1" fill="#f4f4f4" d="M 42.5,39.5 C 43.2389,39.369 43.9056,39.5357 44.5,40C 62.6805,58.3473 81.0138,76.514 99.5,94.5C 118.153,76.3473 136.653,58.014 155,39.5C 156.5,41 158,42.5 159.5,44C 140.986,62.3472 122.653,80.8472 104.5,99.5C 122.5,118.167 140.833,136.5 159.5,154.5C 158.185,156.316 156.685,157.983 155,159.5C 136.653,140.986 118.153,122.653 99.5,104.5C 80.8472,122.653 62.3472,140.986 44,159.5C 41.7049,157.92 40.3716,155.92 40,153.5C 58.0408,135.292 76.2074,117.292 94.5,99.5C 76.514,81.0138 58.3473,62.6805 40,44.5C 40.0579,42.5646 40.8912,40.8979 42.5,39.5 Z"/></g>
<g><path style="opacity:0.71" fill="#555555" d="M 73.5,40.5 C 77.5,43.8333 81.1667,47.5 84.5,51.5C 79.8333,48.8333 76.1667,45.1667 73.5,40.5 Z"/></g>
<g><path style="opacity:0.086" fill="#777777" d="M 18.5,46.5 C 17.8333,47.5 17.1667,48.5 16.5,49.5C 15.2819,47.6682 15.9486,46.6682 18.5,46.5 Z"/></g>
<g><path style="opacity:0.914" fill="#282828" d="M 127.5,38.5 C 127.631,39.2389 127.464,39.9056 127,40.5C 118.579,49.4255 109.746,57.7588 100.5,65.5C 109.167,56.1667 118.167,47.1667 127.5,38.5 Z"/></g>
<g><path style="opacity:0.71" fill="#545454" d="M 98.5,132.5 C 98.8966,131.475 99.5632,131.308 100.5,132C 114.422,145.419 127.755,159.252 140.5,173.5C 126.5,159.833 112.5,146.167 98.5,132.5 Z"/></g>
</svg>
